<mxfile host="65bd71144e" modified="2020-10-26T01:21:31.770Z" agent="5.0 (Windows NT 10.0; Win64; x64) AppleWebKit/537.36 (KHTML, like Gecko) Code/1.50.1 Chrome/83.0.4103.122 Electron/9.2.1 Safari/537.36" etag="FhqF1ztiOghqTXaRT56D" version="13.6.5">
    <diagram id="5oSIhlMfCAtmRrCKGh0x" name="ページ1">
        <mxGraphModel dx="772" dy="396" grid="1" gridSize="10" guides="1" tooltips="1" connect="1" arrows="1" fold="1" page="1" pageScale="1" pageWidth="827" pageHeight="1169" math="0" shadow="0">
            <root>
                <mxCell id="0"/>
                <mxCell id="1" parent="0"/>
                <mxCell id="2rtSPOfYCMrfIWrXHU8p-2" value="" style="endArrow=classic;html=1;entryX=0;entryY=0.5;entryDx=0;entryDy=0;" parent="1" edge="1" target="2rtSPOfYCMrfIWrXHU8p-5">
                    <mxGeometry width="50" height="50" relative="1" as="geometry">
                        <mxPoint x="192" y="290" as="sourcePoint"/>
                        <mxPoint x="240" y="290" as="targetPoint"/>
                    </mxGeometry>
                </mxCell>
                <mxCell id="2rtSPOfYCMrfIWrXHU8p-3" value="" style="group" parent="1" vertex="1" connectable="0">
                    <mxGeometry x="230" y="240" width="160" height="110" as="geometry"/>
                </mxCell>
                <mxCell id="2rtSPOfYCMrfIWrXHU8p-4" value="" style="verticalLabelPosition=bottom;verticalAlign=top;html=1;shape=mxgraph.basic.8_point_star;strokeColor=#000000;strokeWidth=1;" parent="2rtSPOfYCMrfIWrXHU8p-3" vertex="1">
                    <mxGeometry x="30" width="150" height="100" as="geometry"/>
                </mxCell>
                <mxCell id="2rtSPOfYCMrfIWrXHU8p-5" value="&lt;font style=&quot;font-size: 11px&quot;&gt;「投稿」ボタン&lt;br&gt;を押す&lt;/font&gt;" style="text;strokeColor=none;fillColor=none;html=1;fontSize=24;fontStyle=1;verticalAlign=middle;align=center;" parent="2rtSPOfYCMrfIWrXHU8p-3" vertex="1">
                    <mxGeometry x="60" y="32.5" width="90" height="35" as="geometry"/>
                </mxCell>
                <mxCell id="4" value="投稿モーダル画面" style="swimlane;fontStyle=0;childLayout=stackLayout;horizontal=1;startSize=26;horizontalStack=0;resizeParent=1;resizeParentMax=0;resizeLast=0;collapsible=1;marginBottom=0;align=center;fontSize=14;" vertex="1" parent="1">
                    <mxGeometry x="460" y="155" width="160" height="240" as="geometry"/>
                </mxCell>
                <mxCell id="5" value="表示&#10;・投稿モーダル&#10;&#10;入力&#10;・投稿文&#10;&#10;&#10;操作&#10;・「プライバシーポリシー&#10;　に同意」にチェックを&#10;　入れる&#10;・「キャンセル」ボタン&#10;　を押す&#10;・「投稿」ボタンを押す&#10;&#10;" style="text;strokeColor=none;fillColor=none;spacingLeft=4;spacingRight=4;overflow=hidden;rotatable=0;points=[[0,0.5],[1,0.5]];portConstraint=eastwest;fontSize=12;" vertex="1" parent="4">
                    <mxGeometry y="26" width="160" height="214" as="geometry"/>
                </mxCell>
                <mxCell id="6" value="" style="endArrow=classic;html=1;entryX=0;entryY=0.5;entryDx=0;entryDy=0;exitX=1;exitY=0.5;exitDx=0;exitDy=0;" edge="1" parent="1" source="2rtSPOfYCMrfIWrXHU8p-5" target="5">
                    <mxGeometry width="50" height="50" relative="1" as="geometry">
                        <mxPoint x="290" y="310" as="sourcePoint"/>
                        <mxPoint x="340" y="260" as="targetPoint"/>
                    </mxGeometry>
                </mxCell>
                <mxCell id="7" value="メイン画面" style="swimlane;fontStyle=0;childLayout=stackLayout;horizontal=1;startSize=26;horizontalStack=0;resizeParent=1;resizeParentMax=0;resizeLast=0;collapsible=1;marginBottom=0;align=center;fontSize=14;" vertex="1" parent="1">
                    <mxGeometry x="30" y="150" width="160" height="270" as="geometry"/>
                </mxCell>
                <mxCell id="8" value="表示&#10;カルーセル（スライド）&#10;・カード（各災害のカード）&#10;入力&#10;・検索キーワード&#10;操作&#10;・マイページ遷移ボタン&#10;・検索ボタン&#10;・投稿ボタン&#10;・設定ボタン&#10;・カルーセル&#10;・カード" style="text;strokeColor=none;fillColor=none;spacingLeft=4;spacingRight=4;overflow=hidden;rotatable=0;points=[[0,0.5],[1,0.5]];portConstraint=eastwest;fontSize=12;" vertex="1" parent="7">
                    <mxGeometry y="26" width="160" height="244" as="geometry"/>
                </mxCell>
            </root>
        </mxGraphModel>
    </diagram>
</mxfile>